SplineFontDB: 3.0
FontName: Spirita
FullName: Spirita
FamilyName: Spirita
Weight: Regular
Copyright: Created by trashman with FontForge 2.0 (http://fontforge.sf.net)
UComments: "2010-10-22: Created." 
Version: 001.000
ItalicAngle: 0
UnderlinePosition: -100
UnderlineWidth: 50
Ascent: 750
Descent: 250
LayerCount: 3
Layer: 0 0 "Back"  1
Layer: 1 0 "Fore"  0
Layer: 2 0 "backup"  0
NeedsXUIDChange: 1
XUID: [1021 658 797806517 11107023]
OS2Version: 0
OS2_WeightWidthSlopeOnly: 0
OS2_UseTypoMetrics: 1
CreationTime: 1287776574
ModificationTime: 1287803250
OS2TypoAscent: 0
OS2TypoAOffset: 1
OS2TypoDescent: 0
OS2TypoDOffset: 1
OS2TypoLinegap: 0
OS2WinAscent: 0
OS2WinAOffset: 1
OS2WinDescent: 0
OS2WinDOffset: 1
HheadAscent: 0
HheadAOffset: 1
HheadDescent: 0
HheadDOffset: 1
OS2Vendor: 'PfEd'
MarkAttachClasses: 1
DEI: 91125
Encoding: UnicodeBmp
UnicodeInterp: none
NameList: Adobe Glyph List
DisplaySize: -48
AntiAlias: 1
FitToEm: 1
WinInfo: 60 12 4
BeginChars: 65536 63

StartChar: a
Encoding: 97 97 0
Width: 187
VWidth: 0
Flags: HW
LayerCount: 3
Fore
SplineSet
46 168 m 0
 46 194 68 216 94 216 c 0
 120 216 142 194 142 168 c 0
 142 142 120 120 94 120 c 0
 68 120 46 142 46 168 c 0
EndSplineSet
EndChar

StartChar: b
Encoding: 98 98 1
Width: 187
VWidth: 0
Flags: HW
LayerCount: 3
Fore
SplineSet
46 168 m 4
 46 194 68 216 94 216 c 4
 120 216 142 194 142 168 c 4
 142 142 120 120 94 120 c 4
 68 120 46 142 46 168 c 4
EndSplineSet
EndChar

StartChar: c
Encoding: 99 99 2
Width: 187
VWidth: 0
Flags: HW
LayerCount: 3
Fore
SplineSet
46 168 m 4
 46 194 68 216 94 216 c 4
 120 216 142 194 142 168 c 4
 142 142 120 120 94 120 c 4
 68 120 46 142 46 168 c 4
EndSplineSet
EndChar

StartChar: d
Encoding: 100 100 3
Width: 187
VWidth: 0
Flags: HW
LayerCount: 3
Fore
SplineSet
46 168 m 4
 46 194 68 216 94 216 c 4
 120 216 142 194 142 168 c 4
 142 142 120 120 94 120 c 4
 68 120 46 142 46 168 c 4
EndSplineSet
EndChar

StartChar: e
Encoding: 101 101 4
Width: 187
VWidth: 0
Flags: HW
LayerCount: 3
Fore
SplineSet
46 168 m 4
 46 194 68 216 94 216 c 4
 120 216 142 194 142 168 c 4
 142 142 120 120 94 120 c 4
 68 120 46 142 46 168 c 4
EndSplineSet
EndChar

StartChar: f
Encoding: 102 102 5
Width: 187
VWidth: 0
Flags: HW
LayerCount: 3
Fore
SplineSet
46 168 m 4
 46 194 68 216 94 216 c 4
 120 216 142 194 142 168 c 4
 142 142 120 120 94 120 c 4
 68 120 46 142 46 168 c 4
EndSplineSet
EndChar

StartChar: g
Encoding: 103 103 6
Width: 187
VWidth: 0
Flags: HW
LayerCount: 3
Fore
SplineSet
46 168 m 4
 46 194 68 216 94 216 c 4
 120 216 142 194 142 168 c 4
 142 142 120 120 94 120 c 4
 68 120 46 142 46 168 c 4
EndSplineSet
EndChar

StartChar: h
Encoding: 104 104 7
Width: 509
VWidth: 0
Flags: HW
HStem: -2 28<29.0062 87.9542 165.199 219.975 289.006 348.625 418.658 470.975> 356 34<217.957 315.795> 692 24<23.0036 87.3434>
VStem: 90 82<467.696 691.997> 91 68<26 338.041 352.004 619.096> 352 66<26 322.251>
LayerCount: 3
Fore
SplineSet
90 669 m 4xf4
 89 686 89 691 79 691 c 4
 74 691 47 689 34 688 c 4
 28 688 23 688 23 704 c 4
 23 712 26 716 33 716 c 4
 47 717 158 729 164 729 c 4
 171 729 173 726 172 714 c 4xf4
 170 696 159 511 159 386 c 6
 159 371 l 6
 159 357 159 352 164 352 c 4
 166 352 169 353 174 355 c 4
 213 372 251 390 302 390 c 4
 394 390 420 331 420 243 c 4
 420 184 418 118 418 66 c 4
 418 42 419 24 422 24 c 6
 457 24 l 6
 469 24 471 21 471 12 c 4
 471 3 470 -2 457 -2 c 4
 438 -2 415 0 386 0 c 4
 361 0 332 -2 302 -2 c 4
 289 -2 289 1 289 12 c 4
 289 21 294 24 304 24 c 6
 344 24 l 6
 352 24 352 105 352 122 c 6
 352 221 l 6
 352 292 336 356 268 356 c 4
 225 356 192 344 174 335 c 4
 161 328 159 327 159 320 c 6
 159 158 l 6
 159 89 163 24 171 24 c 6
 206 24 l 6
 218 24 220 21 220 12 c 4
 220 3 219 -2 206 -2 c 4
 187 -2 155 0 126 0 c 4
 101 0 72 -2 42 -2 c 4
 29 -2 29 1 29 12 c 4
 29 21 34 24 44 24 c 6
 76 24 l 6
 89 24 88 38 89 57 c 4
 91 95 91 237 91 279 c 4xec
 91 468 90 664 90 669 c 4xf4
EndSplineSet
EndChar

StartChar: i
Encoding: 105 105 8
Width: 232
VWidth: 0
Flags: HW
HStem: -2 25<29.0037 93.6114 158.474 211.986> 358 21<25.0119 90.3771> 519 88<92.7901 166.706>
VStem: 82 95<529.901 595.341> 94 64<23 362.078>
LayerCount: 3
Fore
SplineSet
94 51 m 2xe8
 94 221 l 2
 94 262 94 301 91 348 c 0
 90 363 89 364 79 363 c 0
 73 362 40 358 36 358 c 0
 29 358 25 360 25 368 c 0
 25 377 29 378 43 379 c 0
 84 383 149 395 154 395 c 0
 161 395 162 390 162 375 c 0
 161 322 158 279 158 226 c 2
 158 51 l 2
 158 28 159 24 169 24 c 2
 198 24 l 2
 210 24 212 21 212 12 c 0
 212 3 211 -2 198 -2 c 0
 179 -2 151 0 126 0 c 0
 101 0 61 -2 42 -2 c 0
 29 -2 29 1 29 12 c 0
 29 21 34 23 44 23 c 2
 83 23 l 2
 94 23 94 31 94 51 c 2xe8
177 571 m 0xf0
 177 537 146 519 121 519 c 0
 101 519 82 531 82 555 c 0
 82 589 115 607 138 607 c 0
 158 607 177 595 177 571 c 0xf0
EndSplineSet
EndChar

StartChar: j
Encoding: 106 106 9
Width: 268
VWidth: 0
Flags: HW
HStem: -232 76<22.5132 78.9976> 357 27<46.0579 126.302> 545 94<94.6062 170.115>
VStem: 83 99<557.477 627.146> 127 70<-104.749 362.992>
LayerCount: 3
Fore
SplineSet
179 600 m 0xf0
 179 566 148 548 123 548 c 0
 103 548 84 560 84 584 c 0
 84 618 117 636 140 636 c 0
 160 636 179 624 179 600 c 0xf0
127 115 m 2xe8
 127 339 l 2
 127 352 126 363 118 363 c 0
 111 363 62 357 58 357 c 0
 51 357 46 361 46 369 c 0
 46 378 50 383 60 384 c 0
 103 387 184 395 191 396 c 1
 192 396 l 2
 198 396 199 389 199 375 c 0
 199 355 197 279 197 226 c 2
 197 51 l 2
 197 28 195 -89 152 -161 c 0
 137 -186 110 -195 84 -208 c 0
 57 -221 35 -232 24 -232 c 0
 16 -232 9 -224 9 -215 c 0
 9 -204 25 -156 51 -156 c 0
 66 -156 100 -163 110 -163 c 0
 133 -163 139 -151 139 -135 c 0
 139 -73 127 -57 127 115 c 2xe8
EndSplineSet
EndChar

StartChar: k
Encoding: 107 107 10
Width: 187
VWidth: 0
Flags: HW
LayerCount: 3
Fore
SplineSet
46 168 m 4
 46 194 68 216 94 216 c 4
 120 216 142 194 142 168 c 4
 142 142 120 120 94 120 c 4
 68 120 46 142 46 168 c 4
EndSplineSet
EndChar

StartChar: z
Encoding: 122 122 11
Width: 187
VWidth: 0
Flags: HW
LayerCount: 3
Fore
SplineSet
46 168 m 0
 46 194 68 216 94 216 c 0
 120 216 142 194 142 168 c 0
 142 142 120 120 94 120 c 0
 68 120 46 142 46 168 c 0
EndSplineSet
EndChar

StartChar: l
Encoding: 108 108 12
Width: 227
VWidth: 0
Flags: HW
HStem: -2 23<19.0022 84.2799 148.537 206.997> 691 24<10.0037 76.5325> 705 20G<141 147.5>
VStem: 77 75<436.151 690.997> 85 63<21 269.5>
LayerCount: 3
Fore
SplineSet
26 714 m 0xd0
 65 715 138 725 144 725 c 0
 151 725 152 724 152 712 c 2xb0
 148 49 l 2
 148 26 149 21 159 21 c 2
 193 21 l 2
 205 21 207 19 207 10 c 0
 207 1 206 -2 193 -2 c 0
 175 -2 145 0 116 0 c 0
 91 0 49 -2 32 -2 c 0
 19 -2 19 -1 19 10 c 0
 19 19 22 21 32 21 c 2
 73 21 l 2
 84 21 85 29 85 49 c 0xa8
 85 407 81 474 77 670 c 0
 77 687 75 691 65 691 c 0
 60 691 40 688 28 687 c 0
 12 686 10 687 10 703 c 0
 10 711 15 714 26 714 c 0xd0
EndSplineSet
EndChar

StartChar: m
Encoding: 109 109 13
Width: 187
VWidth: 0
Flags: HW
LayerCount: 3
Fore
SplineSet
46 168 m 4
 46 194 68 216 94 216 c 4
 120 216 142 194 142 168 c 4
 142 142 120 120 94 120 c 4
 68 120 46 142 46 168 c 4
EndSplineSet
EndChar

StartChar: n
Encoding: 110 110 14
Width: 187
VWidth: 0
Flags: HW
LayerCount: 3
Fore
SplineSet
46 168 m 4
 46 194 68 216 94 216 c 4
 120 216 142 194 142 168 c 4
 142 142 120 120 94 120 c 4
 68 120 46 142 46 168 c 4
EndSplineSet
EndChar

StartChar: o
Encoding: 111 111 15
Width: 187
VWidth: 0
Flags: HW
LayerCount: 3
Fore
SplineSet
46 168 m 4
 46 194 68 216 94 216 c 4
 120 216 142 194 142 168 c 4
 142 142 120 120 94 120 c 4
 68 120 46 142 46 168 c 4
EndSplineSet
EndChar

StartChar: p
Encoding: 112 112 16
Width: 187
VWidth: 0
Flags: HW
LayerCount: 3
Fore
SplineSet
46 168 m 4
 46 194 68 216 94 216 c 4
 120 216 142 194 142 168 c 4
 142 142 120 120 94 120 c 4
 68 120 46 142 46 168 c 4
EndSplineSet
EndChar

StartChar: q
Encoding: 113 113 17
Width: 187
VWidth: 0
Flags: HW
LayerCount: 3
Fore
SplineSet
46 168 m 4
 46 194 68 216 94 216 c 4
 120 216 142 194 142 168 c 4
 142 142 120 120 94 120 c 4
 68 120 46 142 46 168 c 4
EndSplineSet
EndChar

StartChar: r
Encoding: 114 114 18
Width: 341
VWidth: 0
Flags: HWO
LayerCount: 3
Fore
SplineSet
167 71 m 2
 167 36 172 25 184 25 c 2
 239 23 l 2
 251 23 253 20 253 11 c 0
 253 2 252 -2 239 -2 c 0
 220 -2 195 0 132 0 c 0
 90 0 63 -2 56 -2 c 0
 43 -2 43 2 42 12 c 0
 41 21 46 22 56 23 c 2
 90 26 l 2
 100 27 100 54 100 74 c 2
 100 348 l 9
 34 349 l 25
 34 373 l 25
 168 380 l 25
 162 289 l 17
 185 356 232 398 266 398 c 0
 290 398 321 357 321 350 c 0
 321 341 295 315 282 315 c 0
 267 315 247 347 224 347 c 0
 192 347 167 271 167 226 c 2
 167 71 l 2
EndSplineSet
EndChar

StartChar: s
Encoding: 115 115 19
Width: 187
VWidth: 0
Flags: HW
LayerCount: 3
Fore
SplineSet
46 168 m 4
 46 194 68 216 94 216 c 4
 120 216 142 194 142 168 c 4
 142 142 120 120 94 120 c 4
 68 120 46 142 46 168 c 4
EndSplineSet
EndChar

StartChar: t
Encoding: 116 116 20
Width: 187
VWidth: 0
Flags: HW
LayerCount: 3
Fore
SplineSet
46 168 m 4
 46 194 68 216 94 216 c 4
 120 216 142 194 142 168 c 4
 142 142 120 120 94 120 c 4
 68 120 46 142 46 168 c 4
EndSplineSet
EndChar

StartChar: u
Encoding: 117 117 21
Width: 187
VWidth: 0
Flags: HW
LayerCount: 3
Fore
SplineSet
46 168 m 4
 46 194 68 216 94 216 c 4
 120 216 142 194 142 168 c 4
 142 142 120 120 94 120 c 4
 68 120 46 142 46 168 c 4
EndSplineSet
EndChar

StartChar: v
Encoding: 118 118 22
Width: 187
VWidth: 0
Flags: HW
LayerCount: 3
Fore
SplineSet
46 168 m 4
 46 194 68 216 94 216 c 4
 120 216 142 194 142 168 c 4
 142 142 120 120 94 120 c 4
 68 120 46 142 46 168 c 4
EndSplineSet
EndChar

StartChar: w
Encoding: 119 119 23
Width: 187
VWidth: 0
Flags: HW
LayerCount: 3
Fore
SplineSet
46 168 m 4
 46 194 68 216 94 216 c 4
 120 216 142 194 142 168 c 4
 142 142 120 120 94 120 c 4
 68 120 46 142 46 168 c 4
EndSplineSet
EndChar

StartChar: x
Encoding: 120 120 24
Width: 187
VWidth: 0
Flags: HW
LayerCount: 3
Fore
SplineSet
46 168 m 4
 46 194 68 216 94 216 c 4
 120 216 142 194 142 168 c 4
 142 142 120 120 94 120 c 4
 68 120 46 142 46 168 c 4
EndSplineSet
EndChar

StartChar: y
Encoding: 121 121 25
Width: 187
VWidth: 0
Flags: HW
LayerCount: 3
Fore
SplineSet
46 168 m 4
 46 194 68 216 94 216 c 4
 120 216 142 194 142 168 c 4
 142 142 120 120 94 120 c 4
 68 120 46 142 46 168 c 4
EndSplineSet
EndChar

StartChar: zero
Encoding: 48 48 52
Width: 187
VWidth: 0
Flags: HW
LayerCount: 3
Fore
SplineSet
46 168 m 0
 46 194 68 216 94 216 c 0
 120 216 142 194 142 168 c 0
 142 142 120 120 94 120 c 0
 68 120 46 142 46 168 c 0
EndSplineSet
EndChar

StartChar: one
Encoding: 49 49 53
Width: 187
VWidth: 0
Flags: HW
LayerCount: 3
Fore
SplineSet
46 168 m 0
 46 194 68 216 94 216 c 0
 120 216 142 194 142 168 c 0
 142 142 120 120 94 120 c 0
 68 120 46 142 46 168 c 0
EndSplineSet
EndChar

StartChar: two
Encoding: 50 50 54
Width: 187
VWidth: 0
Flags: HW
LayerCount: 3
Fore
SplineSet
46 168 m 0
 46 194 68 216 94 216 c 0
 120 216 142 194 142 168 c 0
 142 142 120 120 94 120 c 0
 68 120 46 142 46 168 c 0
EndSplineSet
EndChar

StartChar: three
Encoding: 51 51 55
Width: 187
VWidth: 0
Flags: HW
LayerCount: 3
Fore
SplineSet
46 168 m 0
 46 194 68 216 94 216 c 0
 120 216 142 194 142 168 c 0
 142 142 120 120 94 120 c 0
 68 120 46 142 46 168 c 0
EndSplineSet
EndChar

StartChar: four
Encoding: 52 52 56
Width: 187
VWidth: 0
Flags: HW
LayerCount: 3
Fore
SplineSet
46 168 m 0
 46 194 68 216 94 216 c 0
 120 216 142 194 142 168 c 0
 142 142 120 120 94 120 c 0
 68 120 46 142 46 168 c 0
EndSplineSet
EndChar

StartChar: five
Encoding: 53 53 57
Width: 187
VWidth: 0
Flags: HW
LayerCount: 3
Fore
SplineSet
46 168 m 0
 46 194 68 216 94 216 c 0
 120 216 142 194 142 168 c 0
 142 142 120 120 94 120 c 0
 68 120 46 142 46 168 c 0
EndSplineSet
EndChar

StartChar: six
Encoding: 54 54 58
Width: 187
VWidth: 0
Flags: HW
LayerCount: 3
Fore
SplineSet
46 168 m 0
 46 194 68 216 94 216 c 0
 120 216 142 194 142 168 c 0
 142 142 120 120 94 120 c 0
 68 120 46 142 46 168 c 0
EndSplineSet
EndChar

StartChar: seven
Encoding: 55 55 59
Width: 187
VWidth: 0
Flags: HW
LayerCount: 3
Fore
SplineSet
46 168 m 0
 46 194 68 216 94 216 c 0
 120 216 142 194 142 168 c 0
 142 142 120 120 94 120 c 0
 68 120 46 142 46 168 c 0
EndSplineSet
EndChar

StartChar: eight
Encoding: 56 56 60
Width: 187
VWidth: 0
Flags: HW
LayerCount: 3
Fore
SplineSet
46 168 m 0
 46 194 68 216 94 216 c 0
 120 216 142 194 142 168 c 0
 142 142 120 120 94 120 c 0
 68 120 46 142 46 168 c 0
EndSplineSet
EndChar

StartChar: nine
Encoding: 57 57 61
Width: 187
VWidth: 0
Flags: HW
LayerCount: 3
Fore
SplineSet
46 168 m 0
 46 194 68 216 94 216 c 0
 120 216 142 194 142 168 c 0
 142 142 120 120 94 120 c 0
 68 120 46 142 46 168 c 0
EndSplineSet
EndChar

